<svg width="87" height="50" viewBox="0 0 87 50" fill="none" xmlns="http://www.w3.org/2000/svg">
<path d="M87 48.6751C83.8356 49.4722 81.8787 48.7095 80.123 46.0984C76.1814 40.251 71.8303 34.6716 67.632 28.9891C67.0907 28.2538 66.5286 27.5324 65.8277 26.6185C60.8591 33.2561 55.8973 39.5776 51.241 46.1534C49.5755 48.5033 47.8268 49.5271 44.7179 48.6957L63.3989 23.87L46.0086 1.4492C48.9995 0.872016 51.0675 1.16748 52.8995 3.81977C56.9452 9.67405 61.4073 15.2466 65.8555 21.1421C70.3314 15.2672 74.738 9.68779 78.9016 3.88848C80.5741 1.53852 82.3714 0.645265 85.3762 1.51104C83.1 4.50002 80.8725 7.4409 78.631 10.3612C75.6054 14.2984 72.6353 18.2837 69.4987 22.1384C68.3814 23.5127 68.5619 24.406 69.5611 25.7046C75.3625 33.2561 81.0945 40.8831 87 48.6751ZM0.0208184 23.4577C0.52046 20.9772 0.853554 18.4486 1.5475 16.0162C5.71117 1.29116 22.7822 -4.8311 34.5099 4.29388C41.38 9.64657 43.0871 17.1912 42.7471 25.6977H4.02489C3.44197 40.9587 14.5382 50.173 28.6808 45.4731C33.6425 43.824 36.564 39.9761 38.0282 35.1663C38.7708 32.7545 39.999 32.3766 42.2891 33.0637C41.1163 39.0829 38.4585 44.1126 32.9069 47.2596C24.5796 51.9733 12.6923 50.4479 6.43982 43.8996C2.74803 40.0517 1.17971 35.2625 0.485762 30.0885C0.38167 29.2639 0.166547 28.4531 0 27.6354C0.0138789 26.2429 0.0208184 24.8503 0.0208184 23.4577ZM4.09428 22.4339H39.09C38.861 11.3987 31.9215 3.55866 22.4353 3.48995C12.0261 3.4075 4.54535 11.062 4.09428 22.4339Z" fill="white"/>
</svg>
