<svg width="54" height="74" viewBox="0 0 54 74" fill="none" xmlns="http://www.w3.org/2000/svg">
<path d="M17.3747 57.2336C17.3747 57.2336 14.5706 58.8813 19.3634 59.4305C25.1719 60.0953 28.1334 60.0086 34.5285 58.7801C34.5285 58.7801 36.2167 59.8496 38.563 60.7746C24.2277 66.9749 6.11533 60.4133 17.3747 57.2336ZM15.6293 49.1255C15.6293 49.1255 12.4961 51.4669 17.2889 51.9728C23.4837 52.6231 28.3909 52.6665 36.8605 51.0189C36.8605 51.0189 38.0337 52.2184 39.8792 52.8688C22.5252 57.9996 3.21106 53.288 15.6293 49.1255ZM30.3939 35.3808C33.9276 39.4854 29.4639 43.1854 29.4639 43.1854C29.4639 43.1854 38.4343 38.5026 34.3139 32.6492C30.4654 27.186 27.5182 24.4688 43.4845 15.1178C43.4989 15.1178 18.4191 21.4482 30.3939 35.3808ZM49.3646 63.2171C49.3646 63.2171 51.4391 64.937 47.0898 66.2812C38.8062 68.8104 12.6392 69.5764 5.37138 66.3823C2.75324 65.2405 7.66045 63.6363 9.20558 63.3039C10.8079 62.957 11.7379 63.0148 11.7379 63.0148C8.83361 60.948 -7.04688 67.0761 3.66887 68.8249C32.8832 73.6232 56.9472 66.6714 49.3646 63.2171ZM18.7196 40.7284C18.7196 40.7284 5.39999 43.9225 13.9983 45.0787C17.6323 45.5701 24.8715 45.4545 31.6099 44.8908C37.118 44.4283 42.6548 43.4166 42.6548 43.4166C42.6548 43.4166 40.709 44.2549 39.307 45.2232C25.7871 48.822 -0.322709 47.1455 7.18833 43.4744C13.5548 40.3815 18.7196 40.7284 18.7196 40.7284ZM42.6118 54.213C56.3606 47.0009 49.9941 40.0635 45.559 41.003C44.4717 41.2342 43.9853 41.4366 43.9853 41.4366C43.9853 41.4366 44.3859 40.8006 45.1584 40.526C53.9285 37.4042 60.6813 49.7181 42.3257 54.5887C42.3257 54.5743 42.5403 54.3864 42.6118 54.213ZM34.3139 0C34.3139 0 41.9251 7.68896 27.089 19.5115C15.2001 28.9926 24.3707 34.4124 27.089 40.5838C20.1502 34.2535 15.057 28.6891 18.4764 23.5005C23.498 15.9127 37.3899 12.2127 34.3139 0ZM20.0787 73.7678C33.2695 74.6205 53.5279 73.2908 54 66.9893C54 66.9893 53.0844 69.3741 43.0983 71.2819C31.8389 73.4209 17.947 73.1752 9.72062 71.8022C9.72062 71.7877 11.4088 73.2041 20.0787 73.7678Z" fill="white"/>
</svg>
