<svg width="69" height="69" viewBox="0 0 69 69" fill="none" xmlns="http://www.w3.org/2000/svg">
<path d="M48.4038 40.4202C47.0686 39.0689 47.4711 37.1757 48.7627 36.207C49.9307 35.3311 53.1823 34.9594 54.8034 38.3825C54.8034 38.3825 59.8077 35.1672 59.8077 35.1213C55.1641 26.5039 41.0137 29.4238 41.32 38.5712C41.2922 43.3835 43.9548 46.2631 50.127 48.6736C52.0964 49.4755 53.7783 50.2416 54.5718 51.1186C55.4916 52.1352 55.5562 54.0716 54.4298 55.1049C52.1512 57.19 47.168 56.77 44.5686 52.4489C44.5096 52.4489 39.4784 55.358 39.3743 55.4561C42.4512 62.2954 53.7378 64.2495 59.2672 59.1344C61.3633 57.2754 62.9265 52.2764 60.4087 48.1113C56.2984 42.8164 52.6804 43.7379 48.4038 40.4202ZM35.7868 54.009C35.8258 53.6446 35.7867 30.3828 35.7867 30.3828H29.4336L29.4336 52.626C29.4336 56.916 25.5718 56.4443 24.4531 55.9306C23.482 55.4846 22.8368 54.6598 21.85 52.9817C21.824 52.9947 16.6621 56.1184 16.6621 56.1184C19.2917 61.8133 25.3986 62.7707 30.2773 61.3633C34.8663 60.0395 35.7958 55.0436 35.7868 54.009ZM61.5214 69H7.47857C3.35534 69 0 65.6455 0 61.5214V7.47857C0 3.35534 3.35534 0 7.47857 0H61.5214C65.6455 0 69 3.35534 69 7.47857V61.5214C69 65.6455 65.6455 69 61.5214 69ZM7.47857 3.47074C5.26858 3.47074 3.47074 5.26858 3.47074 7.47857V61.5214C3.47074 63.7314 5.26858 65.5293 7.47857 65.5293H61.5214C63.7314 65.5293 65.5293 63.7314 65.5293 61.5214V7.47857C65.5293 5.26858 63.7314 3.47074 61.5214 3.47074L7.47857 3.47074Z" fill="white"/>
</svg>
