<svg width="80" height="78" viewBox="0 0 80 78" fill="none" xmlns="http://www.w3.org/2000/svg">
<path d="M73.6877 60.3284C69.3352 60.2194 65.9624 60.6521 63.1328 61.8411C62.3156 62.1663 61.0106 62.1663 60.9011 63.1906C61.3367 63.6235 61.3914 64.3262 61.7717 64.9226C62.4255 66.0007 63.5678 67.461 64.6016 68.2178C65.7447 69.0837 66.8869 69.9471 68.0838 70.7039C70.2057 72.0005 72.6006 72.7573 74.6683 74.0539C75.865 74.8108 77.062 75.7834 78.2587 76.5947C78.8577 77.0272 79.2378 77.7305 80 78C80 77.9455 80 77.891 80 77.8367C79.6189 77.3516 79.5106 76.6493 79.1295 76.1072C78.585 75.5679 78.0409 75.0804 77.4977 74.541C75.92 72.4327 73.9607 70.5947 71.8385 69.083C70.0973 67.8931 66.2888 66.2724 65.5813 64.2711C65.5813 64.2711 65.5266 64.219 65.4721 64.1647C66.6688 64.0557 68.0836 63.623 69.2268 63.2989C71.0765 62.8137 72.7637 62.9207 74.6683 62.4352C75.5387 62.218 76.4092 61.9478 77.2798 61.6779C77.2798 61.5144 77.2798 61.3539 77.2798 61.1911C76.2998 60.2184 75.5926 58.9218 74.559 58.003C71.784 55.624 68.7376 53.3014 65.5818 51.3558C63.8944 50.2747 61.7185 49.5721 59.923 48.6535C59.2702 48.3292 58.1816 48.1673 57.8008 47.6271C56.8217 46.4378 56.2778 44.8706 55.5701 43.4658C53.9923 40.493 52.4689 37.1966 51.1092 34.062C50.1292 31.9546 49.5312 29.8468 48.334 27.901C42.7298 18.7135 36.636 13.1476 27.2765 7.68848C25.2637 6.55402 22.8698 6.06731 20.3121 5.47274C18.9519 5.41906 17.5917 5.31089 16.2317 5.25639C15.36 4.87867 14.4905 3.85173 13.7284 3.36518C10.6275 1.42078 2.6293 -2.79434 0.342977 2.77176C-1.12544 6.2848 2.51973 9.74367 3.77164 11.5274C4.69648 12.7703 5.89352 14.1747 6.54617 15.5806C6.92728 16.4992 7.03553 17.472 7.41697 18.4448C8.2876 20.8224 9.10304 23.4702 10.2465 25.6864C10.8443 26.8215 11.4981 28.0101 12.2588 29.0369C12.6948 29.6313 13.4559 29.9015 13.6192 30.8744C12.8581 31.9554 12.8031 33.5767 12.3687 34.9275C10.4095 41.0345 11.1719 48.6003 13.9466 53.086C14.8162 54.4378 16.8847 57.4091 19.6594 56.2747C22.108 55.3014 21.5638 52.2214 22.2712 49.5196C22.4346 48.8709 22.3262 48.4387 22.6523 48.0061C22.6523 48.0606 22.6523 48.1144 22.6523 48.1144C23.413 49.6276 24.1755 51.0871 24.8829 52.5998C26.5693 55.2474 29.5071 58.0045 31.9557 59.8417C33.2623 60.8146 34.2959 62.4908 35.9285 63.0846C35.9285 63.0301 35.9285 62.9759 35.9285 62.9217C35.8739 62.9217 35.8739 62.9217 35.8192 62.9217C35.4926 62.4363 35.0031 62.2188 34.5671 61.8414C33.5886 60.8682 32.5 59.6792 31.7389 58.5996C29.4534 55.5721 27.4394 52.2219 25.6446 48.7627C24.7741 47.0875 24.0121 45.2506 23.3046 43.5753C22.9785 42.9266 22.9785 41.9538 22.4341 41.6294C21.617 42.8182 20.4211 43.8451 19.8224 45.3045C18.7886 47.6284 18.6802 50.4927 18.2992 53.465C18.0811 53.5192 18.1894 53.465 18.0811 53.5729C16.3398 53.1407 15.7409 51.3573 15.0882 49.844C13.4556 46.0067 13.184 39.8459 14.5989 35.4144C14.9798 34.2795 16.6115 30.7126 15.9589 29.6315C15.6328 28.6049 14.5439 28.0101 13.9461 27.1995C13.2386 26.1729 12.4765 24.8763 11.987 23.7407C10.6804 20.7148 10.0279 17.3638 8.61302 14.3367C7.96054 12.932 6.81837 11.473 5.89303 10.176C4.85944 8.71705 3.71595 7.68962 2.90018 5.96027C2.62848 5.36587 2.24753 4.39359 2.68203 3.74486C2.79045 3.31264 3.00811 3.15046 3.44424 3.04212C4.15176 2.44772 6.1644 3.2043 6.87143 3.52834C8.88522 4.33909 10.5718 5.09568 12.258 6.23047C13.0202 6.77102 13.8358 7.79764 14.8152 8.068C15.1962 8.068 15.5773 8.068 15.9586 8.068C17.6998 8.44653 19.6586 8.1765 21.2901 8.6624C24.1747 9.58165 26.7863 10.9325 29.1262 12.3913C36.2539 16.8769 42.1297 23.2541 46.1016 30.8743C46.7541 32.1176 47.0266 33.2524 47.6255 34.5493C48.7677 37.1971 50.1822 39.8992 51.3251 42.4935C52.4679 45.0335 53.5552 47.6281 55.1881 49.7358C56.004 50.8699 59.2695 51.4646 60.7378 52.0595C61.8264 52.5456 63.5133 52.9783 64.4925 53.5722C66.3425 54.7073 68.1927 56.0037 69.9338 57.2479C70.8046 57.8962 73.5246 59.2475 73.6877 60.3284ZM18.1889 13.3646C17.2638 13.3646 16.6112 13.4726 15.9587 13.6348C15.9587 13.6348 15.9587 13.6884 15.9587 13.7429C16.0134 13.7429 16.0134 13.7429 16.067 13.7429C16.5029 14.6077 17.2638 15.2019 17.8082 15.9585C18.2442 16.8233 18.6252 17.688 19.0598 18.5528C19.1147 18.4988 19.1682 18.4449 19.1682 18.4449C19.9305 17.9045 20.3116 17.0391 20.3116 15.7426C19.9852 15.3641 19.9305 14.9856 19.6588 14.6075C19.3323 14.0671 18.6248 13.7968 18.1889 13.3646Z" fill="white"/>
</svg>
