<svg width="72" height="73" viewBox="0 0 72 73" fill="none" xmlns="http://www.w3.org/2000/svg">
<path d="M27.2737 35.1989L44.6214 35.1973C49.4503 35.1973 53.3057 31.212 53.3057 26.3468V9.76332C53.3057 5.04263 49.335 1.49729 44.6214 0.710507C38.7315 -0.231704 32.9483 -0.241953 27.2753 0.710507C19.9264 2.01111 18.5911 4.73755 18.5911 9.76332V16.4012H35.9564V18.6138H12.0715C7.02488 18.6138 2.6059 21.655 1.22257 27.4451C-0.372109 34.0797 -0.442556 38.2192 1.22257 45.146C2.4554 50.3035 5.40459 53.9773 10.4512 53.9773H16.4232V46.0195C16.4232 40.2712 21.385 35.1989 27.2737 35.1989ZM53.3025 62.8214V56.1835H35.9564V53.9709H61.9867C67.0333 53.9709 68.913 50.4416 70.671 45.1396C72.4834 39.6835 72.4027 34.4416 70.6694 27.4402C69.4221 22.402 67.0397 18.6106 61.9835 18.6106H55.4671V26.3436C55.4671 32.3392 50.3981 37.3874 44.6182 37.3874H27.2721C22.5201 37.3874 18.5879 41.4658 18.5879 46.2379L18.5879 62.8214C18.5879 76.3929 53.3025 76.3929 53.3025 62.8214ZM24.5465 11.5293C22.3782 10.2566 22.3782 7.05752 24.5465 5.7848C26.7148 4.51208 29.4399 6.11162 29.4399 8.65706C29.4399 11.2025 26.7148 12.802 24.5465 11.5293ZM44.0798 66.8032C41.9115 65.5304 41.9115 62.3314 44.0798 61.0586C46.2481 59.7859 48.9732 61.3854 48.9732 63.9309C48.9732 66.4763 46.2481 68.0759 44.0798 66.8032Z" fill="white"/>
</svg>
