<svg width="68" height="69" viewBox="0 0 68 69" fill="none" xmlns="http://www.w3.org/2000/svg">
<path d="M25.7585 33.2702L42.1424 33.2686C46.703 33.2686 50.3442 29.5017 50.3442 24.9031V9.22834C50.3442 4.76632 46.5942 1.41525 42.1424 0.671575C36.5798 -0.219008 31.1179 -0.228695 25.76 0.671575C18.8194 1.90091 17.5582 4.47796 17.5582 9.22835V15.5025H33.9588V17.5939H11.4008C6.63461 17.5939 2.46113 20.4684 1.15465 25.9412C-0.351436 32.2123 -0.417969 36.125 1.15465 42.6723C2.31899 47.5471 5.10433 51.0196 9.87057 51.0196H15.5108V43.4979C15.5108 38.0646 20.1969 33.2702 25.7585 33.2702ZM50.3412 59.3791V53.1049H33.9588V51.0136H58.543C63.3093 51.0136 65.0845 47.6777 66.7448 42.6662C68.4565 37.5091 68.3803 32.5544 66.7433 25.9367C65.5653 21.1745 63.3153 17.5908 58.54 17.5908H52.3856V24.9001C52.3856 30.5671 47.5982 35.3388 42.1394 35.3388H25.757C21.269 35.3388 17.5552 39.1937 17.5552 43.7043L17.5552 59.3791C17.5552 72.207 50.3412 72.207 50.3412 59.3791ZM23.1828 10.8976C21.135 9.6946 21.135 6.67081 23.1828 5.46783C25.2307 4.26484 27.8044 5.77673 27.8044 8.1827C27.8044 10.5887 25.2307 12.1006 23.1828 10.8976ZM41.6309 63.1427C39.5831 61.9397 39.5831 58.9159 41.6309 57.713C43.6788 56.51 46.2525 58.0219 46.2525 60.4278C46.2525 62.8338 43.6788 64.3457 41.6309 63.1427Z" fill="white"/>
</svg>
