<svg width="65" height="64" viewBox="0 0 65 64" fill="none" xmlns="http://www.w3.org/2000/svg">
<path d="M38.7633 63.9971C38.7633 63.9971 31.7264 47.9677 33.5143 33.2544C35.3022 18.5411 46.8719 11.8425 53.4303 11.1241C59.9888 10.4056 63.5674 14.4748 63.5674 14.4748L65 12.3224C65 12.3224 55.5792 2.753 43.6514 3.83063C31.7235 4.90827 23.4947 12.8023 18.3688 22.3717C13.2401 31.9411 10.2574 38.6397 8.23172 48.689C6.20603 58.7383 7.0398 64 7.0398 64L38.7633 63.9971ZM0.719166 47.9677L6.91947 48.4476L5.84501 54.6662L0 53.9478L0.719166 47.9677ZM10.4981 34.809L12.1685 30.145L6.68165 27.9926L4.89377 33.0158L10.4981 34.809ZM18.2513 18.7796L21.4718 14.9518L17.2972 12.2017L13.9593 15.9088L18.2513 18.7796ZM26.718 3.94845L29.5804 7.417L33.5171 5.14391L30.6548 1.91388L26.718 3.94845ZM40.6716 0L41.3879 3.46855L46.2788 3.34785L45.8003 0.238517L40.6716 0ZM57.1293 5.85946L60.4701 7.65264L61.1864 6.57501L57.2525 3.70419L57.1293 5.85946ZM56.5333 12.9201V14.7133L59.7538 15.0725V13.6357L56.5333 12.9201ZM46.2788 14.4748L47.8288 17.3456L50.0952 15.5524L49.6196 13.6385L46.2788 14.4748ZM41.3879 18.1818L43.7717 21.7711L42.342 24.2827L38.8837 20.4549L41.3879 18.1818ZM36.6173 28.1105L35.0672 31.2198L39.1215 34.6883L40.0756 30.7399L36.6173 28.1105ZM34.7091 43.183L39.7174 45.3354L39.4796 41.3869L34.9469 38.9931L34.7091 43.183ZM37.5743 58.1348L43.8949 58.494L41.6285 53.83H36.3795L37.5743 58.1348Z" fill="white"/>
</svg>
