<svg width="74" height="73" viewBox="0 0 74 73" fill="none" xmlns="http://www.w3.org/2000/svg">
<path d="M44.1306 72.9967C44.1306 72.9967 36.1193 54.7131 38.1547 37.9308C40.1902 21.1484 53.3618 13.5078 60.8284 12.6884C68.2949 11.8689 72.369 16.5103 72.369 16.5103L74 14.0552C74 14.0552 63.2748 3.14014 49.6954 4.36931C36.116 5.59849 26.7478 14.6026 20.9122 25.5177C15.0733 36.4328 11.6777 44.0734 9.3715 55.5359C7.06532 66.9984 8.01454 73 8.01454 73L44.1306 72.9967ZM0.818743 54.7131L7.87755 55.2605L6.65432 62.3537L0 61.5342L0.818743 54.7131ZM11.9517 39.7041L13.8534 34.3842L7.60681 31.9291L5.57136 37.6587L11.9517 39.7041ZM20.7785 21.4205L24.4449 17.0544L19.6922 13.9176L15.8921 18.1459L20.7785 21.4205ZM30.4174 4.5037L33.6761 8.46002L38.158 5.86727L34.8993 2.18302L30.4174 4.5037ZM46.303 0L47.1185 3.95631L52.6866 3.81864L52.1419 0.272058L46.303 0ZM65.0395 6.68344L68.8429 8.7288L69.6584 7.49962L65.1798 4.22509L65.0395 6.68344ZM64.361 14.737V16.7824L68.0274 17.1921V15.5532L64.361 14.737ZM52.6866 16.5103L54.4513 19.7848L57.0315 17.7395L56.49 15.5565L52.6866 16.5103ZM47.1185 20.7387L49.8324 24.8326L48.2047 27.6974L44.2676 23.3314L47.1185 20.7387ZM41.6874 32.0635L39.9227 35.6101L44.5383 39.5664L45.6245 35.0627L41.6874 32.0635ZM39.5149 49.2556L45.2168 51.7107L44.946 47.207L39.7857 44.4765L39.5149 49.2556ZM42.7769 66.31L49.9727 66.7197L47.3925 61.3998H41.4166L42.7769 66.31Z" fill="white"/>
</svg>
