<svg width="82" height="72" viewBox="0 0 82 72" fill="none" xmlns="http://www.w3.org/2000/svg">
<path d="M66.9773 23.3325C66.1125 23.0432 65.2477 22.77 64.3828 22.5129C64.527 21.9182 64.6551 21.3236 64.7832 20.729C66.7531 11.151 65.4559 3.45316 61.0836 0.914013C56.8715 -1.51264 50.0008 1.01044 43.05 7.08511C42.3613 7.67972 41.6887 8.30647 41.048 8.93323C40.6156 8.51539 40.1672 8.09756 39.7188 7.69579C32.4316 1.20328 25.1285 -1.52871 20.7563 1.02651C16.5602 3.46923 15.3109 10.7171 17.0727 19.7809C17.2488 20.6808 17.441 21.5647 17.6652 22.4646C16.6402 22.7539 15.6312 23.0753 14.6863 23.4128C6.13398 26.3859 0 31.0785 0 35.9318C0 40.9458 6.53438 45.9759 15.423 49.0293C16.1438 49.2704 16.8645 49.5114 17.6012 49.7203C17.3609 50.6846 17.1527 51.6327 16.9605 52.613C15.2789 61.5322 16.5922 68.6033 20.7883 71.0299C25.1125 73.5369 32.3836 70.9656 39.4625 64.7463C40.023 64.2481 40.5836 63.7339 41.1441 63.1875C41.8488 63.8785 42.5855 64.5374 43.3223 65.1802C50.177 71.0942 56.9516 73.4887 61.1316 71.0621C65.4559 68.555 66.8652 60.9537 65.0395 51.697C64.8953 50.9899 64.7352 50.2667 64.559 49.5275C65.0715 49.3829 65.568 49.2221 66.0645 49.0614C75.3055 45.992 82 41.0262 82 35.9318C82 31.0624 75.6898 26.3377 66.9773 23.3325V23.3325ZM45.3082 9.68854C51.266 4.48168 56.8234 2.44072 59.3539 3.90314C62.0605 5.46198 63.1016 11.7616 61.4039 20.038C61.2918 20.5844 61.1797 21.1147 61.0355 21.645C57.4801 20.8415 53.8766 20.263 50.257 19.9416C48.175 16.9524 45.9008 14.0919 43.4344 11.4081C44.059 10.8135 44.6676 10.251 45.3082 9.68854V9.68854ZM24.4879 40.078C25.2246 41.4922 25.9773 42.8903 26.7781 44.2724C27.5949 45.6705 28.4277 47.0687 29.3086 48.4347C26.8102 48.1615 24.3277 47.7597 21.8773 47.2294C22.582 44.9152 23.4629 42.5207 24.4879 40.078V40.078ZM24.4879 31.9463C23.4789 29.5518 22.6301 27.2055 21.9254 24.9395C24.2316 24.4253 26.682 24.0074 29.2285 23.686C28.3797 25.0199 27.5469 26.3859 26.7621 27.7679C25.9773 29.1339 25.2086 30.5321 24.4879 31.9463ZM26.3137 36.0121C27.3707 33.7944 28.5238 31.6249 29.741 29.4875C30.9582 27.3501 32.2715 25.277 33.6488 23.236C36.0512 23.0593 38.5016 22.9628 41 22.9628C43.4984 22.9628 45.9648 23.0593 48.3512 23.236C49.7125 25.2609 51.0098 27.334 52.243 29.4553C53.4762 31.5767 54.6293 33.7462 55.7184 35.9479C54.6453 38.1656 53.4922 40.3512 52.259 42.5046C51.0418 44.642 49.7445 46.7151 48.3832 48.7722C45.9969 48.9489 43.5145 49.0293 41 49.0293C38.4855 49.0293 36.0512 48.9489 33.6969 48.8043C32.3035 46.7634 30.9902 44.6742 29.757 42.5368C28.5238 40.3994 27.3867 38.2299 26.3137 36.0121ZM55.2379 44.2403C56.0547 42.8261 56.8234 41.3958 57.5762 39.9494C58.6012 42.2797 59.498 44.642 60.2828 47.0687C57.8004 47.6312 55.2859 48.0651 52.7555 48.3543C53.6203 47.0044 54.4371 45.6223 55.2379 44.2403ZM57.5441 31.9463C56.7914 30.5321 56.0227 29.1179 55.2219 27.7358C54.4371 26.3698 53.6203 25.0199 52.7715 23.686C55.35 24.0074 57.8164 24.4413 60.1227 24.9717C59.3859 27.3501 58.5211 29.6643 57.5441 31.9463V31.9463ZM41.032 13.8669C42.7137 15.6989 44.2992 17.6274 45.7727 19.6202C42.6016 19.4755 39.4145 19.4755 36.2434 19.6202C37.8129 17.5471 39.4305 15.6186 41.032 13.8669ZM22.4539 4.01563C25.1445 2.44072 31.1184 4.6906 37.4125 10.2832C37.8129 10.6367 38.2133 11.0224 38.6297 11.4081C36.1473 14.0919 33.857 16.9524 31.759 19.9416C28.1395 20.263 24.552 20.8254 20.9965 21.6129C20.7883 20.7933 20.6121 19.9576 20.4359 19.122C18.9305 11.3438 19.9234 5.47805 22.4539 4.01563V4.01563ZM18.5301 46.3777C17.8574 46.1848 17.2008 45.9759 16.5441 45.7509C13.1328 44.6742 9.25703 42.9707 6.4543 40.7369C4.83672 39.6119 3.74766 37.8763 3.44336 35.9318C3.44336 32.9909 8.5043 29.2304 15.8074 26.6751C16.7203 26.3537 17.6492 26.0645 18.5781 25.7913C19.6672 29.2786 20.9805 32.7016 22.502 36.0121C20.9645 39.3709 19.6352 42.8421 18.5301 46.3777V46.3777ZM37.2043 62.1268C34.5617 64.5535 31.5027 66.4819 28.1715 67.7997C26.3937 68.6515 24.3438 68.7318 22.518 68.0086C19.9715 66.5302 18.9145 60.8572 20.3559 53.2237C20.532 52.3238 20.7242 51.4238 20.9484 50.5399C24.5359 51.3113 28.1555 51.8416 31.823 52.1148C33.9371 55.12 36.2594 57.9967 38.7418 60.6965C38.2293 61.1947 37.7168 61.6768 37.2043 62.1268ZM41.1281 58.2217C39.4945 56.4539 37.8609 54.4933 36.2754 52.388C37.8129 52.4523 39.3984 52.4845 41 52.4845C42.6496 52.4845 44.2672 52.4523 45.8687 52.372C44.3953 54.4129 42.8098 56.3575 41.1281 58.2217V58.2217ZM62.0605 63.0428C61.9164 65.0034 60.9555 66.8355 59.418 68.0729C56.8715 69.5514 51.4422 67.6229 45.5805 62.5768C44.9078 61.9982 44.2352 61.3715 43.5465 60.7287C45.9969 58.0127 48.2551 55.1361 50.3051 52.1148C53.9727 51.8095 57.6242 51.247 61.2277 50.4274C61.3879 51.0863 61.532 51.7452 61.6602 52.388C62.4449 55.8593 62.573 59.4752 62.0605 63.0428V63.0428ZM64.9754 45.767C64.527 45.9116 64.0785 46.0562 63.6141 46.1848C62.493 42.6814 61.1156 39.2584 59.5301 35.9318C61.0676 32.6534 62.3648 29.2786 63.4539 25.8234C64.2867 26.0645 65.0875 26.3216 65.8563 26.5787C73.3195 29.15 78.5566 32.9748 78.5566 35.8996C78.5566 39.0495 72.9672 43.1153 64.9754 45.767ZM41 28.6357C45.052 28.6357 48.3352 31.9302 48.3352 35.9961C48.3352 40.0619 45.052 43.3564 41 43.3564C36.948 43.3564 33.6648 40.0619 33.6648 35.9961C33.6648 31.9302 36.948 28.6357 41 28.6357Z" fill="white"/>
</svg>
