<svg width="77" height="77" viewBox="0 0 77 77" fill="none" xmlns="http://www.w3.org/2000/svg">
<path d="M38.5 2.8694e-05C17.264 -0.025638 0.0256667 17.171 0 38.407V38.5C0 59.8033 17.1935 77 38.5 77C59.8033 77 77 59.8033 77 38.5C77 17.1935 59.8033 2.8694e-05 38.5 2.8694e-05ZM38.5 66.7365C22.9524 66.7847 10.3116 54.2112 10.2635 38.6636V38.5C10.2185 22.9524 22.7888 10.3116 38.3364 10.2635H38.5C54.0508 10.2186 66.6884 22.7888 66.7365 38.3364V38.5C66.7847 54.0508 54.2112 66.6884 38.6636 66.7365H38.5ZM55.9533 29.0066C55.9533 33.3667 52.36 36.96 47.9935 36.96C43.6109 36.9376 40.0625 33.3891 40.04 29.0066C40.04 24.64 43.6333 21.0467 47.9935 21.0467C52.36 21.0467 55.9533 24.64 55.9533 29.0066ZM55.9533 47.9967C55.9533 52.36 52.36 55.9533 47.9935 55.9533C43.6077 55.9277 40.0592 52.3793 40.04 47.9967C40.04 43.6366 43.6333 40.0432 47.9935 40.0432C52.36 40.04 55.9533 43.6366 55.9533 47.9967ZM36.9632 47.9967C36.9632 52.36 33.3699 55.9533 29.0097 55.9533C24.6207 55.9309 21.0691 52.3825 21.0499 47.9967C21.0499 43.6366 24.6432 40.0432 29.0097 40.0432C33.3667 40.04 36.9632 43.6366 36.9632 47.9967ZM36.9632 29.0066C36.9632 33.3667 33.3699 36.96 29.0097 36.96C24.624 36.9376 21.0691 33.3923 21.0499 29.0066C21.0499 24.64 24.6432 21.0467 29.0097 21.0467C33.3667 21.0467 36.9632 24.64 36.9632 29.0066Z" fill="white"/>
</svg>
