<svg width="68" height="76" viewBox="0 0 68 76" fill="none" xmlns="http://www.w3.org/2000/svg">
<path d="M62.7791 47.0295V28.9763C63.4008 28.8282 64.0119 28.5919 64.5935 28.2594C67.8517 26.3769 68.9638 22.2433 67.0908 19.0024C65.1983 15.7615 61.0427 14.6553 57.7845 16.5183C57.1984 16.8569 56.6829 17.2693 56.2406 17.7354L40.5265 8.7107C41.5117 5.44222 39.8892 1.90059 36.6562 0.539101C33.1887 -0.921105 29.1993 0.686511 27.7313 4.13564C27.0898 5.64293 27.0374 7.24931 27.471 8.70222L11.7567 17.727C9.64771 15.5166 6.22116 14.9217 3.44512 16.4981C0.18137 18.3515 -0.971162 22.4936 0.892113 25.7401C1.86258 27.431 3.45764 28.5505 5.22414 28.9749V47.0327C2.06912 47.7981 -0.171704 50.7113 0.0337931 54.0399C0.264154 57.7711 3.49304 60.5986 7.26163 60.3781C9.04361 60.2613 10.6188 59.4776 11.7592 58.289L27.4709 67.3123C26.5487 70.4053 27.9566 73.7955 30.9608 75.287C34.33 76.9596 38.4211 75.5855 40.0939 72.2515C40.9325 70.5803 41.0134 68.7326 40.4661 67.0926L56.086 58.122C57.3463 59.5307 59.184 60.4138 61.2248 60.3945C64.9828 60.359 68.0192 57.3014 67.9835 53.5633C67.9675 50.3836 65.7593 47.7406 62.7791 47.0295ZM13.4504 52.0132C13.135 50.7272 12.4581 49.5939 11.537 48.7183L32.1067 13.2805C33.381 13.65 34.6942 13.6317 35.9037 13.2814L56.4715 48.7159C55.5414 49.5968 54.8611 50.7342 54.5487 52.0132H13.4504ZM55.2872 25.7753C56.2457 27.4338 57.8075 28.5316 59.5404 28.9601V47.0398C59.4525 47.0614 59.3653 47.0847 59.2788 47.1096L38.7094 11.6724C38.7713 11.6135 38.8315 11.5527 38.8912 11.4914L54.6414 20.5368C54.1547 22.2372 54.3318 24.1222 55.2872 25.7753ZM29.2983 11.676L8.73254 47.1071C8.64329 47.0813 8.55345 47.0569 8.46282 47.0346V28.9655C9.0517 28.8193 9.63055 28.5935 10.1833 28.2796C12.9665 26.699 14.2055 23.4666 13.3612 20.5254L29.1031 11.4847C29.1665 11.5499 29.2321 11.6132 29.2983 11.676ZM39.0358 64.6648C38.4855 64.0645 37.8178 63.5519 37.0423 63.1669C34.3087 61.8097 31.1057 62.4472 29.0963 64.526L13.3768 55.4982C13.4023 55.411 13.4264 55.3232 13.4484 55.2347H54.5566C54.5938 55.3848 54.6341 55.5336 54.6811 55.6796L39.0358 64.6648Z" fill="white"/>
</svg>
