<svg width="68" height="76" viewBox="0 0 68 76" fill="none" xmlns="http://www.w3.org/2000/svg">
<path d="M33.9848 76C32.9651 76 31.9302 75.7285 31.0322 75.2158L21.6419 69.7113C20.2417 68.9271 20.9266 68.6556 21.3832 68.5048C23.2551 67.8563 23.6356 67.7206 25.6294 66.5895C25.8424 66.4689 26.1164 66.5141 26.3295 66.6499L33.5434 70.8876C33.8022 71.0384 34.1674 71.0384 34.4109 70.8876L62.521 54.8114C62.7798 54.6606 62.9472 54.359 62.9472 54.0573V21.9049C62.9472 21.5883 62.7798 21.3017 62.5058 21.1358L34.4109 5.07471C34.1522 4.9239 33.8022 4.9239 33.5434 5.07471L5.46374 21.1509C5.18979 21.3017 5.02238 21.6033 5.02238 21.92V54.0573C5.02238 54.359 5.18979 54.6606 5.46374 54.7963L13.1647 59.1999C17.35 61.266 19.9069 58.838 19.9069 56.3798V24.6497C19.9069 24.1972 20.2722 23.8504 20.7287 23.8504H24.2901C24.7314 23.8504 25.1119 24.1972 25.1119 24.6497V56.3949C25.1119 61.9145 22.068 65.0815 16.7869 65.0815C15.1585 65.0815 13.88 65.0815 10.3187 63.3321L2.95255 59.1245C1.12623 58.0839 0 56.1385 0 54.0423V21.9049C0 19.8238 1.12623 17.8633 2.95255 16.8227L31.0322 0.746503C32.8129 -0.248834 35.1719 -0.248834 36.9373 0.746503L65.0474 16.8378C66.8738 17.8784 68 19.8238 68 21.92V54.0573C68 56.1385 66.8738 58.0839 65.0474 59.1396L36.9373 75.2158C36.0394 75.7285 35.0197 76 33.9848 76ZM56.6768 44.3151C56.6768 38.2978 52.5676 36.6993 43.9382 35.5682C35.2023 34.4221 34.3196 33.8339 34.3196 31.8131C34.3196 30.1391 35.0654 27.9071 41.5336 27.9071C47.3017 27.9071 49.4324 29.1438 50.3151 33.0045C50.3912 33.3664 50.7261 33.6379 51.1065 33.6379H54.7592C54.9875 33.6379 55.2005 33.5474 55.3527 33.3815C55.5049 33.2156 55.581 32.9894 55.5658 32.7632C55.0027 26.1125 50.5434 23.0209 41.5336 23.0209C33.513 23.0209 28.7341 26.3689 28.7341 31.994C28.7341 38.0867 33.4978 39.7758 41.1835 40.5298C50.3912 41.4196 51.1065 42.7618 51.1065 44.5564C51.1065 47.6631 48.5801 48.9902 42.6598 48.9902C35.2175 48.9902 33.5891 47.1352 33.0412 43.4706C32.9803 43.0785 32.6455 42.7919 32.2346 42.7919H28.5971C28.1406 42.7919 27.7905 43.1539 27.7905 43.5912C27.7905 48.2814 30.3626 53.8764 42.675 53.8764C51.5631 53.8613 56.6768 50.3776 56.6768 44.3151Z" fill="white"/>
</svg>
