<svg width="64" height="64" viewBox="0 0 64 64" fill="none" xmlns="http://www.w3.org/2000/svg">
<path d="M59.8165 63.0576L45.5218 38.0037L17.5412 56.035L59.8165 63.0576ZM64 11.2187L47.2226 36.4397C46.9832 36.7999 46.6754 37.0849 47.0105 37.6366L61.5058 61.3493L64 11.2187ZM7.36962 32.7657C7.56371 32.95 8.04332 33.0541 8.26902 32.9447C8.26902 32.9447 16.228 29.0894 20.106 26.9783C21.3713 26.2898 23.4346 24.0578 23.4346 24.0578C23.4346 24.0578 30.648 17.4303 34.2502 14.1131C34.4714 13.9102 34.7313 13.7118 34.8635 13.4565L38.7461 5.77111L34.1818 4.07946C33.9789 4.00878 33.6552 4.15013 33.434 4.27324C29.9458 6.22024 26.3938 8.06464 23.0174 10.1895C21.328 11.2519 11.2602 20.8295 11.2602 20.8295C10.6287 21.4246 10.0541 22.1017 9.56397 22.8176L4.71473 30.0515C4.71473 30.0515 6.47506 31.9161 7.36962 32.7657ZM21.8638 29.5317L15.902 54.7173L43.9122 36.6699L21.8638 29.5317ZM61.3941 11.5551L37.5879 15.5312L45.6677 35.1835L61.3941 11.5551ZM22.1944 27.8264L43.8051 34.8415L35.8119 15.3761L22.1944 27.8264ZM7.66714 37.6241C7.66714 37.6241 2.62639 49.6765 0.104873 55.7044C4.95184 55.5608 9.65061 55.4217 14.509 55.2781C12.2268 49.3915 9.99031 43.6201 7.66714 37.6241ZM14.7685 51.3347L20.1083 29.2422L8.55172 35.2496L14.7685 51.3347ZM58.4873 10.3901C56.1869 9.78137 41.662 5.95806 41.662 5.95806C41.2494 5.84862 40.9507 5.77567 40.7068 6.27496L37.1479 13.4291L37.0909 13.7825L58.4828 10.5406L58.4873 10.3901ZM45.1433 4.9458L63.8906 10.1325L60.7922 1.30488L45.1707 4.76798L45.1433 4.9458ZM16.269 57.4155C13.9459 57.1487 11.5634 57.3961 9.20832 57.4348C7.27273 57.469 5.33941 57.542 3.4061 57.6013C3.20547 57.6081 3.00712 57.6469 2.80878 57.8612L50.786 62.2978L50.8179 62.0835C50.8179 62.0835 40.5654 60.6836 35.438 59.9837C29.0499 59.1105 22.6731 58.1541 16.269 57.4155ZM0.420632 50.1883L6.60245 35.8424C6.80992 35.3636 6.79396 35.0376 6.38814 34.6523L3.77315 31.9575L0 50.5862L0.139071 50.6523L0.420632 50.1883ZM41.0373 3.68391L52.2155 1.11337L52.1813 0.942383L37.1206 2.96917C38.5341 3.58701 39.6238 4.0464 41.0373 3.68391Z" fill="white"/>
</svg>
